<?xml version="1.0" standalone="no"?>
<!DOCTYPE svg PUBLIC "-//W3C//DTD SVG 20010904//EN"
 "http://www.w3.org/TR/2001/REC-SVG-20010904/DTD/svg10.dtd">
<svg version="1.0" xmlns="http://www.w3.org/2000/svg"
 width="32.000000pt" height="32.000000pt" viewBox="0 0 32.000000 32.000000"
 preserveAspectRatio="xMidYMid meet">

<g transform="translate(0.000000,32.000000) scale(0.100000,-0.100000)"
fill="#000000" stroke="none">
<path d="M92 293 c-105 -52 -107 -210 -2 -263 50 -25 90 -25 140 0 45 23 80
80 80 130 0 107 -121 181 -218 133z m18 -13 c-8 -5 -11 -10 -6 -10 6 0 -3 -13
-19 -30 -15 -16 -31 -27 -36 -25 -4 3 -10 -1 -12 -7 -3 -7 -6 -8 -6 -2 -1 5 6
19 14 30 13 16 14 16 9 2 -9 -25 -2 -22 27 9 22 24 22 26 4 20 -20 -7 -20 -7
-1 8 11 8 25 15 30 15 6 0 4 -5 -4 -10z m126 -5 c16 -13 16 -14 2 -9 -25 9
-22 2 9 -27 24 -22 26 -22 20 -4 -7 20 -7 20 8 1 8 -11 15 -25 15 -30 0 -6 -5
-4 -10 4 -5 8 -10 11 -10 6 0 -6 -13 3 -30 19 -16 15 -27 31 -25 36 3 4 -1 10
-7 12 -7 3 -8 6 -2 6 5 1 19 -6 30 -14z m-58 -2 c-10 -2 -26 -2 -35 0 -10 3
-2 5 17 5 19 0 27 -2 18 -5z m48 -47 c24 -24 34 -43 34 -66 0 -43 -56 -100
-96 -100 -34 0 -66 19 -46 27 6 2 12 14 12 26 0 12 9 28 19 34 18 11 20 9 23
-14 4 -34 32 -53 50 -34 10 11 10 14 1 18 -16 6 -17 35 -1 51 10 10 7 17 -10
34 l-22 22 -23 -22 c-25 -23 -37 -28 -37 -13 0 5 9 11 21 14 29 8 19 31 -16
35 -21 3 -25 6 -14 13 30 19 71 9 105 -25z m-136 -68 c-1 -58 -2 -61 -15 -44
-17 23 -19 59 -5 87 17 30 20 23 20 -43z m-43 -15 c-3 -10 -5 -2 -5 17 0 19 2
27 5 18 2 -10 2 -26 0 -35z m153 37 c0 -5 -4 -10 -10 -10 -5 0 -10 5 -10 10 0
6 5 10 10 10 6 0 10 -4 10 -10z m77 -37 c-3 -10 -5 -2 -5 17 0 19 2 27 5 18 2
-10 2 -26 0 -35z m-228 -38 c5 2 21 -9 36 -25 16 -17 25 -30 19 -30 -5 0 -2
-5 6 -10 8 -5 10 -10 4 -10 -5 0 -19 7 -30 15 -16 13 -16 14 -1 9 24 -9 21 -2
-10 27 -24 22 -26 22 -20 4 7 -20 7 -20 -8 -1 -8 11 -15 25 -14 30 0 6 3 5 6
-2 2 -6 8 -10 12 -7z m241 7 c0 -5 -7 -17 -15 -28 -13 -16 -14 -16 -9 -1 9 24
2 21 -27 -10 -22 -24 -22 -26 -4 -20 20 7 20 7 1 -8 -11 -8 -25 -15 -30 -15
-6 0 -4 5 4 10 8 5 11 10 6 10 -6 0 3 13 19 30 15 16 32 27 37 24 4 -3 8 0 8
5 0 6 2 11 5 11 3 0 5 -4 5 -8z m-112 -69 c-10 -2 -26 -2 -35 0 -10 3 -2 5 17
5 19 0 27 -2 18 -5z"/>
</g>
</svg>
